<svg viewBox="0 0 500 500" xmlns="http://www.w3.org/2000/svg">
  <defs></defs>
  <g fill="#2FC18C" transform="matrix(13.052837, 0, 0, 11.456846, -2245.08374, -1684.156372)" style="">
    <path d="M191.03 174.416L198.588 187.467C198.779 187.797 198.885 188.169 198.899 188.55C198.879 189.105 198.647 189.632 198.25 190.021C197.853 190.41 197.322 190.633 196.767 190.642C196.399 190.644 196.038 190.551 195.718 190.37L173.046 177.245C172.728 177.069 172.463 176.81 172.279 176.497C172.095 176.184 171.999 175.827 172 175.463C171.995 175.18 172.046 174.899 172.151 174.636C172.255 174.374 172.411 174.134 172.609 173.932C172.808 173.73 173.044 173.57 173.305 173.46C173.566 173.351 173.847 173.295 174.13 173.295L189.209 173.372C189.579 173.363 189.945 173.456 190.266 173.64C190.587 173.824 190.851 174.092 191.03 174.416Z"></path>
    <path d="M198.819 169.963L206.338 183.053C206.512 183.376 206.772 183.645 207.089 183.829C207.406 184.013 207.769 184.106 208.136 184.097C208.414 184.103 208.69 184.053 208.949 183.95C209.207 183.847 209.443 183.694 209.641 183.499C209.84 183.304 209.997 183.072 210.104 182.815C210.211 182.559 210.266 182.283 210.265 182.006L210.304 155.826C210.322 155.355 210.178 154.892 209.898 154.512C209.617 154.133 209.216 153.86 208.76 153.738C208.303 153.617 207.819 153.653 207.387 153.842C206.954 154.032 206.599 154.362 206.379 154.779L198.819 167.828C198.636 168.146 198.542 168.508 198.549 168.875C198.541 169.255 198.634 169.631 198.819 169.963Z"></path>
    <path d="M189.17 164.276H174.094C173.632 164.274 173.184 164.121 172.819 163.84C172.454 163.559 172.191 163.165 172.072 162.72C171.953 162.275 171.984 161.803 172.161 161.377C172.337 160.951 172.649 160.595 173.048 160.364L195.757 147.311C196.087 147.119 196.461 147.012 196.843 147C197.401 147.013 197.932 147.242 198.323 147.64C198.714 148.038 198.934 148.573 198.937 149.13C198.924 149.499 198.817 149.859 198.626 150.175L190.991 163.226C190.809 163.547 190.544 163.814 190.224 163.999C189.904 164.184 189.54 164.279 189.17 164.276Z"></path>
  </g>
</svg>